<?xml version="1.0" encoding="utf-8"?>
<!-- Generator: Adobe Illustrator 22.1.0, SVG Export Plug-In . SVG Version: 6.00 Build 0)  -->
<svg version="1.1" id="Layer_1" xmlns="http://www.w3.org/2000/svg" xmlns:xlink="http://www.w3.org/1999/xlink" x="0px" y="0px"
	 viewBox="0 0 521.8 718.3" style="enable-background:new 0 0 521.8 718.3;" xml:space="preserve">
<style type="text/css">
	.st0{fill:none;stroke:#231F20;stroke-width:1.5;stroke-miterlimit:10;}
	.st1{fill:#64C6C2;stroke:#231F20;stroke-miterlimit:10;}
	.st2{fill:#5AC5C4;stroke:#231F20;stroke-miterlimit:10;}
	.st3{fill:none;stroke:#231F20;stroke-miterlimit:10;}
	.st4{fill:#231F20;}
	.st5{font-family:'Montserrat-Thin';}
	.st6{font-size:14px;}
	.st7{fill:none;stroke:#231F20;stroke-width:0.6;stroke-miterlimit:10;}
	.st8{opacity:0.89;fill:#231F20;enable-background:new    ;}
	.st9{opacity:0.89;fill:none;stroke:#231F20;stroke-width:0.6;stroke-miterlimit:10;enable-background:new    ;}
	.st10{fill:#FFFFFF;stroke:#231F20;stroke-width:0.1;stroke-miterlimit:10;}
</style>
<title>finishedtl</title>
<line class="st0" x1="260.2" y1="19" x2="260.2" y2="79.6"/>
<line class="st0" x1="260.2" y1="95.3" x2="260.2" y2="158.3"/>
<line class="st0" x1="260.2" y1="170.4" x2="260.2" y2="239.4"/>
<rect x="255.6" y="10.8" transform="matrix(0.7071 -0.7071 0.7071 0.7071 65.3135 188.499)" class="st1" width="9.1" height="9.1"/>
<rect x="254.6" y="81.9" transform="matrix(0.7071 -0.7071 0.7071 0.7071 14.3765 209.5919)" class="st2" width="11.1" height="11.1"/>
<rect x="255.6" y="159.4" transform="matrix(0.7071 -0.7071 0.7071 0.7071 -39.7146 231.9919)" class="st2" width="9.1" height="9.1"/>
<line class="st3" x1="265.9" y1="15.4" x2="383.6" y2="16"/>
<line class="st3" x1="89.1" y1="87" x2="252.3" y2="87.8"/>
<line class="st3" x1="266.6" y1="163.9" x2="462.8" y2="164.9"/>
<text transform="matrix(1 0 0 1 279.85 12.2)" class="st4 st5 st6">A</text>
<text transform="matrix(1 0 0 1 279.85 12.2)" class="st7 st5 st6">A</text>
<text transform="matrix(1 0 0 1 289.27 12.2)" class="st4 st5 st6">UGU</text>
<text transform="matrix(1 0 0 1 289.27 12.2)" class="st7 st5 st6">UGU</text>
<text transform="matrix(1 0 0 1 322.34 12.2)" class="st4 st5 st6">S</text>
<text transform="matrix(1 0 0 1 322.34 12.2)" class="st7 st5 st6">S</text>
<text transform="matrix(1 0 0 1 330.61 12.2)" class="st4 st5 st6">T </text>
<text transform="matrix(1 0 0 1 330.61 12.2)" class="st7 st5 st6">T </text>
<text transform="matrix(1 0 0 1 341.79 12.2)" class="st4 st5 st6">2</text>
<text transform="matrix(1 0 0 1 341.79 12.2)" class="st7 st5 st6">2</text>
<text transform="matrix(1 0 0 1 349.49 12.2)" class="st4 st5 st6">018</text>
<text transform="matrix(1 0 0 1 349.49 12.2)" class="st7 st5 st6">018</text>
<text transform="matrix(1 0 0 1 138.39 81.9)" class="st4 st5 st6">J</text>
<text transform="matrix(1 0 0 1 138.39 81.9)" class="st7 st5 st6">J</text>
<text transform="matrix(1 0 0 1 144.86 81.9)" class="st4 st5 st6">AN</text>
<text transform="matrix(1 0 0 1 144.86 81.9)" class="st7 st5 st6">AN</text>
<text transform="matrix(1 0 0 1 165.91 81.9)" class="st4 st5 st6">U</text>
<text transform="matrix(1 0 0 1 165.91 81.9)" class="st7 st5 st6">U</text>
<text transform="matrix(1 0 0 1 176.82 81.9)" class="st4 st5 st6">A</text>
<text transform="matrix(1 0 0 1 176.82 81.9)" class="st7 st5 st6">A</text>
<text transform="matrix(1 0 0 1 186.45 81.9)" class="st4 st5 st6">R</text>
<text transform="matrix(1 0 0 1 186.45 81.9)" class="st7 st5 st6">R</text>
<text transform="matrix(1 0 0 1 196.34 81.9)" class="st4 st5 st6">Y </text>
<text transform="matrix(1 0 0 1 196.34 81.9)" class="st7 st5 st6">Y </text>
<text transform="matrix(1 0 0 1 208.38 81.9)" class="st4 st5 st6">2</text>
<text transform="matrix(1 0 0 1 208.38 81.9)" class="st7 st5 st6">2</text>
<text transform="matrix(1 0 0 1 216.08 81.9)" class="st4 st5 st6">018</text>
<text transform="matrix(1 0 0 1 216.08 81.9)" class="st7 st5 st6">018</text>
<text transform="matrix(1 0 0 1 276.89 158.26)" class="st8 st5 st6">JUNE </text>
<text transform="matrix(1 0 0 1 276.89 158.26)" class="st9 st5 st6">JUNE </text>
<text transform="matrix(1 0 0 1 318.96 158.26)" class="st4 st5 st6">2</text>
<text transform="matrix(1 0 0 1 318.96 158.26)" class="st7 st5 st6">2</text>
<text transform="matrix(1 0 0 1 326.66 158.26)" class="st4 st5 st6">017 - </text>
<text transform="matrix(1 0 0 1 326.66 158.26)" class="st7 st5 st6">017 - </text>
<text transform="matrix(1 0 0 1 360.88 158.26)" class="st4 st5 st6">J</text>
<text transform="matrix(1 0 0 1 360.88 158.26)" class="st7 st5 st6">J</text>
<text transform="matrix(1 0 0 1 367.34 158.26)" class="st4 st5 st6">AN</text>
<text transform="matrix(1 0 0 1 367.34 158.26)" class="st7 st5 st6">AN</text>
<text transform="matrix(1 0 0 1 388.4 158.26)" class="st4 st5 st6">U</text>
<text transform="matrix(1 0 0 1 388.4 158.26)" class="st7 st5 st6">U</text>
<text transform="matrix(1 0 0 1 399.31 158.26)" class="st4 st5 st6">A</text>
<text transform="matrix(1 0 0 1 399.31 158.26)" class="st7 st5 st6">A</text>
<text transform="matrix(1 0 0 1 408.94 158.26)" class="st4 st5 st6">R</text>
<text transform="matrix(1 0 0 1 408.94 158.26)" class="st7 st5 st6">R</text>
<text transform="matrix(1 0 0 1 418.82 158.26)" class="st4 st5 st6">Y </text>
<text transform="matrix(1 0 0 1 418.82 158.26)" class="st7 st5 st6">Y </text>
<text transform="matrix(1 0 0 1 430.86 158.26)" class="st4 st5 st6">2</text>
<text transform="matrix(1 0 0 1 430.86 158.26)" class="st7 st5 st6">2</text>
<text transform="matrix(1 0 0 1 438.56 158.26)" class="st4 st5 st6">018</text>
<text transform="matrix(1 0 0 1 438.56 158.26)" class="st7 st5 st6">018</text>
<text transform="matrix(1 0 0 1 15.7 241.79)" class="st8 st5 st6">SE</text>
<text transform="matrix(1 0 0 1 15.7 241.79)" class="st9 st5 st6">SE</text>
<text transform="matrix(1 0 0 1 33.47 241.79)" class="st4 st5 st6">P</text>
<text transform="matrix(1 0 0 1 33.47 241.79)" class="st7 st5 st6">P</text>
<text transform="matrix(1 0 0 1 42.92 241.79)" class="st4 st5 st6">TEMBER </text>
<text transform="matrix(1 0 0 1 42.92 241.79)" class="st7 st5 st6">TEMBER </text>
<text transform="matrix(1 0 0 1 106.67 241.79)" class="st4 st5 st6">2</text>
<text transform="matrix(1 0 0 1 106.67 241.79)" class="st7 st5 st6">2</text>
<text transform="matrix(1 0 0 1 114.37 241.79)" class="st4 st5 st6">017 - </text>
<text transform="matrix(1 0 0 1 114.37 241.79)" class="st7 st5 st6">017 - </text>
<text transform="matrix(1 0 0 1 148.59 241.79)" class="st4 st5 st6">J</text>
<text transform="matrix(1 0 0 1 148.59 241.79)" class="st7 st5 st6">J</text>
<text transform="matrix(1 0 0 1 155.05 241.79)" class="st4 st5 st6">AN</text>
<text transform="matrix(1 0 0 1 155.05 241.79)" class="st7 st5 st6">AN</text>
<text transform="matrix(1 0 0 1 176.11 241.79)" class="st4 st5 st6">U</text>
<text transform="matrix(1 0 0 1 176.11 241.79)" class="st7 st5 st6">U</text>
<text transform="matrix(1 0 0 1 187.02 241.79)" class="st4 st5 st6">A</text>
<text transform="matrix(1 0 0 1 187.02 241.79)" class="st7 st5 st6">A</text>
<text transform="matrix(1 0 0 1 196.65 241.79)" class="st4 st5 st6">R</text>
<text transform="matrix(1 0 0 1 196.65 241.79)" class="st7 st5 st6">R</text>
<text transform="matrix(1 0 0 1 206.53 241.79)" class="st4 st5 st6">Y </text>
<text transform="matrix(1 0 0 1 206.53 241.79)" class="st7 st5 st6">Y </text>
<text transform="matrix(1 0 0 1 218.57 241.79)" class="st4 st5 st6">2</text>
<text transform="matrix(1 0 0 1 218.57 241.79)" class="st7 st5 st6">2</text>
<text transform="matrix(1 0 0 1 226.27 241.79)" class="st4 st5 st6">018</text>
<text transform="matrix(1 0 0 1 226.27 241.79)" class="st7 st5 st6">018</text>
<text transform="matrix(1 0 0 1 276.89 317.09)" class="st8 st5 st6">JUNE </text>
<text transform="matrix(1 0 0 1 276.89 317.09)" class="st9 st5 st6">JUNE </text>
<text transform="matrix(1 0 0 1 318.96 317.09)" class="st4 st5 st6">2</text>
<text transform="matrix(1 0 0 1 318.96 317.09)" class="st7 st5 st6">2</text>
<text transform="matrix(1 0 0 1 326.66 317.09)" class="st4 st5 st6">017 - </text>
<text transform="matrix(1 0 0 1 326.66 317.09)" class="st7 st5 st6">017 - </text>
<text transform="matrix(1 0 0 1 360.88 317.09)" class="st4 st5 st6">A</text>
<text transform="matrix(1 0 0 1 360.88 317.09)" class="st7 st5 st6">A</text>
<text transform="matrix(1 0 0 1 370.3 317.09)" class="st4 st5 st6">UGU</text>
<text transform="matrix(1 0 0 1 370.3 317.09)" class="st7 st5 st6">UGU</text>
<text transform="matrix(1 0 0 1 403.36 317.09)" class="st4 st5 st6">S</text>
<text transform="matrix(1 0 0 1 403.36 317.09)" class="st7 st5 st6">S</text>
<text transform="matrix(1 0 0 1 411.64 317.09)" class="st4 st5 st6">T </text>
<text transform="matrix(1 0 0 1 411.64 317.09)" class="st7 st5 st6">T </text>
<text transform="matrix(1 0 0 1 422.81 317.09)" class="st4 st5 st6">2</text>
<text transform="matrix(1 0 0 1 422.81 317.09)" class="st7 st5 st6">2</text>
<text transform="matrix(1 0 0 1 430.51 317.09)" class="st4 st5 st6">017</text>
<text transform="matrix(1 0 0 1 430.51 317.09)" class="st7 st5 st6">017</text>
<text transform="matrix(1 0 0 1 34.54 401.39)" class="st8 st5 st6">SE</text>
<text transform="matrix(1 0 0 1 34.54 401.39)" class="st9 st5 st6">SE</text>
<text transform="matrix(1 0 0 1 52.31 401.39)" class="st4 st5 st6">P</text>
<text transform="matrix(1 0 0 1 52.31 401.39)" class="st7 st5 st6">P</text>
<text transform="matrix(1 0 0 1 61.76 401.39)" class="st4 st5 st6">TEMBER </text>
<text transform="matrix(1 0 0 1 61.76 401.39)" class="st7 st5 st6">TEMBER </text>
<text transform="matrix(1 0 0 1 125.51 401.39)" class="st4 st5 st6">2</text>
<text transform="matrix(1 0 0 1 125.51 401.39)" class="st7 st5 st6">2</text>
<text transform="matrix(1 0 0 1 133.21 401.39)" class="st4 st5 st6">013 - JUNE </text>
<text transform="matrix(1 0 0 1 133.21 401.39)" class="st7 st5 st6">013 - JUNE </text>
<text transform="matrix(1 0 0 1 209.19 401.39)" class="st4 st5 st6">2</text>
<text transform="matrix(1 0 0 1 209.19 401.39)" class="st7 st5 st6">2</text>
<text transform="matrix(1 0 0 1 216.89 401.39)" class="st4 st5 st6">017</text>
<text transform="matrix(1 0 0 1 216.89 401.39)" class="st7 st5 st6">017</text>
<text transform="matrix(1 0 0 1 26.31 555.99)" class="st8 st5 st6">SE</text>
<text transform="matrix(1 0 0 1 26.31 555.99)" class="st9 st5 st6">SE</text>
<text transform="matrix(1 0 0 1 44.08 555.99)" class="st4 st5 st6">P</text>
<text transform="matrix(1 0 0 1 44.08 555.99)" class="st7 st5 st6">P</text>
<text transform="matrix(1 0 0 1 53.53 555.99)" class="st4 st5 st6">TEMBER </text>
<text transform="matrix(1 0 0 1 53.53 555.99)" class="st7 st5 st6">TEMBER </text>
<text transform="matrix(1 0 0 1 117.28 555.99)" class="st4 st5 st6">2</text>
<text transform="matrix(1 0 0 1 117.28 555.99)" class="st7 st5 st6">2</text>
<text transform="matrix(1 0 0 1 124.98 555.99)" class="st4 st5 st6">005 - JUNE </text>
<text transform="matrix(1 0 0 1 124.98 555.99)" class="st7 st5 st6">005 - JUNE </text>
<text transform="matrix(1 0 0 1 205.3 555.99)" class="st4 st5 st6">2</text>
<text transform="matrix(1 0 0 1 205.3 555.99)" class="st7 st5 st6">2</text>
<text transform="matrix(1 0 0 1 213 555.99)" class="st4 st5 st6">013</text>
<text transform="matrix(1 0 0 1 213 555.99)" class="st7 st5 st6">013</text>
<text transform="matrix(1 0 0 1 279.85 474.31)" class="st8 st5 st6">O</text>
<text transform="matrix(1 0 0 1 279.85 474.31)" class="st9 st5 st6">O</text>
<text transform="matrix(1 0 0 1 291.55 474.31)" class="st4 st5 st6">CT</text>
<text transform="matrix(1 0 0 1 291.55 474.31)" class="st7 st5 st6">CT</text>
<text transform="matrix(1 0 0 1 308.9 474.31)" class="st4 st5 st6">OBER </text>
<text transform="matrix(1 0 0 1 308.9 474.31)" class="st7 st5 st6">OBER </text>
<text transform="matrix(1 0 0 1 353.95 474.31)" class="st4 st5 st6">2</text>
<text transform="matrix(1 0 0 1 353.95 474.31)" class="st7 st5 st6">2</text>
<text transform="matrix(1 0 0 1 361.65 474.31)" class="st4 st5 st6">015</text>
<text transform="matrix(1 0 0 1 361.65 474.31)" class="st7 st5 st6">015</text>
<text transform="matrix(1 0 0 1 279.85 633.91)" class="st8 st5 st6">JUNE </text>
<text transform="matrix(1 0 0 1 279.85 633.91)" class="st9 st5 st6">JUNE </text>
<text transform="matrix(1 0 0 1 321.92 633.91)" class="st4 st5 st6">2</text>
<text transform="matrix(1 0 0 1 321.92 633.91)" class="st7 st5 st6">2</text>
<text transform="matrix(1 0 0 1 329.62 633.91)" class="st4 st5 st6">015 - JU</text>
<text transform="matrix(1 0 0 1 329.62 633.91)" class="st7 st5 st6">015 - JU</text>
<text transform="matrix(1 0 0 1 381.32 633.91)" class="st4 st5 st6">L</text>
<text transform="matrix(1 0 0 1 381.32 633.91)" class="st7 st5 st6">L</text>
<text transform="matrix(1 0 0 1 388.39 633.91)" class="st4 st5 st6">Y </text>
<text transform="matrix(1 0 0 1 388.39 633.91)" class="st7 st5 st6">Y </text>
<text transform="matrix(1 0 0 1 400.43 633.91)" class="st4 st5 st6">2</text>
<text transform="matrix(1 0 0 1 400.43 633.91)" class="st7 st5 st6">2</text>
<text transform="matrix(1 0 0 1 408.13 633.91)" class="st4 st5 st6">015</text>
<text transform="matrix(1 0 0 1 408.13 633.91)" class="st7 st5 st6">015</text>
<rect x="270.5" y="27.1" class="st10" width="251.2" height="52.5"/>
<rect x="270.5" y="170.4" class="st10" width="251.2" height="71.4"/>
<rect x="1.1" y="95.3" class="st10" width="251.2" height="62.9"/>
<line class="st3" x1="15.7" y1="246.3" x2="252.3" y2="247.4"/>
<line class="st0" x1="260.2" y1="254.9" x2="260.2" y2="317.9"/>
<line class="st0" x1="260.2" y1="330" x2="260.2" y2="399"/>
<rect x="254.6" y="241.5" transform="matrix(0.7071 -0.7071 0.7071 0.7071 -98.4725 256.339)" class="st2" width="11.1" height="11.1"/>
<rect x="255.6" y="319" transform="matrix(0.7071 -0.7071 0.7071 0.7071 -152.5706 278.7419)" class="st2" width="9.1" height="9.1"/>
<line class="st3" x1="266.6" y1="323.5" x2="460.9" y2="324.5"/>
<rect x="270.5" y="330" class="st10" width="251.2" height="71.4"/>
<rect x="1.1" y="254.9" class="st10" width="251.2" height="62.9"/>
<line class="st0" x1="259.2" y1="412.1" x2="259.2" y2="475.1"/>
<line class="st0" x1="259.2" y1="487.2" x2="259.2" y2="556.2"/>
<rect x="253.6" y="398.7" transform="matrix(0.7071 -0.7071 0.7071 0.7071 -209.9514 301.6701)" class="st2" width="11.1" height="11.1"/>
<rect x="254.6" y="476.2" transform="matrix(0.7071 -0.7071 0.7071 0.7071 -264.0354 324.0731)" class="st2" width="9.1" height="9.1"/>
<line class="st3" x1="27.8" y1="403.6" x2="251.3" y2="404.6"/>
<line class="st3" x1="265.6" y1="480.8" x2="428.8" y2="481.5"/>
<rect x="269.5" y="487.2" class="st10" width="251.2" height="71.4"/>
<rect x="0.1" y="412.1" class="st10" width="251.2" height="62.9"/>
<line class="st3" x1="34.5" y1="563.2" x2="251.3" y2="564.2"/>
<line class="st0" x1="259.2" y1="571.7" x2="259.2" y2="634.7"/>
<line class="st0" x1="259.2" y1="646.8" x2="259.2" y2="715.8"/>
<rect x="253.6" y="558.3" transform="matrix(0.7071 -0.7071 0.7071 0.7071 -322.8033 348.4102)" class="st2" width="11.1" height="11.1"/>
<rect x="254.6" y="635.8" transform="matrix(0.7071 -0.7071 0.7071 0.7071 -376.8943 370.8301)" class="st2" width="9.1" height="9.1"/>
<line class="st3" x1="265.6" y1="640.4" x2="428.8" y2="641.2"/>
<rect x="269.5" y="646.8" class="st10" width="251.2" height="69"/>
<rect x="0.1" y="571.7" class="st10" width="251.2" height="62.9"/>
</svg>
