
<svg id="Layer_1" data-name="Layer 1" xmlns="http://www.w3.org/2000/svg" viewBox="0 0 521.79 718.26">
  <defs>
   
  </defs>
  <title>timelinefin</title>
  <line class="cls-1" x1="260.19" y1="21.02" x2="260.19" y2="79.57"/>
  <line class="cls-1" x1="260.19" y1="95.31" x2="260.19" y2="158.26"/>
  <line class="cls-1" x1="260.19" y1="170.4" x2="260.19" y2="239.38"/>
 
  <text x="-17.79" y="-9.17"></text>
  <text x="-17.79" y="-9.17"></text>
  <text x="-17.79" y="-9.17"></text>
  <text x="-17.79" y="-9.17"></text>
  <text x="-17.79" y="-9.17"></text>
  <text x="-17.79" y="-9.17"></text>
  <text x="-17.79" y="-9.17"></text>
  <text x="-17.79" y="-9.17"></text>
  <text class="cls-5" transform="translate(279.85 12.2)"><tspan class="cls-6">A</tspan><tspan class="cls-7" x="10.04" y="0">UGU</tspan><tspan class="cls-8" x="42.99" y="0">S</tspan><tspan x="51.55" y="0">T </tspan><tspan class="cls-9" x="63.53" y="0">20</tspan><tspan x="80.82" y="0">18</tspan></text>
  <text class="cls-5" transform="translate(138.39 81.9)"><tspan class="cls-6">J</tspan><tspan x="6.97" y="0">AN</tspan><tspan class="cls-10" x="28.59" y="0">U</tspan><tspan x="39.45" y="0">A</tspan><tspan class="cls-8" x="49.7" y="0">R</tspan><tspan x="59.74" y="0">Y </tspan><tspan class="cls-11" x="72.56" y="0">20</tspan><tspan x="89.85" y="0">18</tspan></text>
  <text class="cls-5" transform="translate(276.89 158.26)">JUNE <tspan class="cls-9" x="42.77" y="0">20</tspan><tspan x="60.06" y="0">17 - </tspan><tspan class="cls-6" x="86.5" y="0">J</tspan><tspan x="93.48" y="0">AN</tspan><tspan class="cls-6" x="115.09" y="0">U</tspan><tspan class="cls-7" x="125.96" y="0">A</tspan><tspan class="cls-8" x="136.2" y="0">R</tspan><tspan class="cls-12" x="146.24" y="0">Y </tspan><tspan class="cls-9" x="159.07" y="0">20</tspan><tspan x="176.36" y="0">18</tspan></text>
  <text class="cls-5" transform="translate(15.7 241.79)">SE<tspan class="cls-13" x="18.07" y="0">P</tspan><tspan x="27.73" y="0">TEMBER </tspan><tspan class="cls-9" x="92.62" y="0">20</tspan><tspan x="109.91" y="0">17 - </tspan><tspan class="cls-6" x="136.36" y="0">J</tspan><tspan x="143.33" y="0">AN</tspan><tspan class="cls-6" x="164.95" y="0">U</tspan><tspan class="cls-7" x="175.81" y="0">A</tspan><tspan class="cls-8" x="186.06" y="0">R</tspan><tspan x="196.1" y="0">Y </tspan><tspan class="cls-9" x="208.92" y="0">20</tspan><tspan x="226.21" y="0">18</tspan></text>
  <text class="cls-5" transform="translate(276.89 317.09)">JUNE <tspan class="cls-9" x="42.77" y="0">20</tspan><tspan x="60.06" y="0">17 - </tspan><tspan class="cls-6" x="86.5" y="0">A</tspan><tspan x="96.54" y="0">UGU</tspan><tspan class="cls-14" x="129.5" y="0">S</tspan><tspan x="138.05" y="0">T </tspan><tspan class="cls-9" x="150.04" y="0">20</tspan><tspan x="167.33" y="0">17</tspan></text>
  <text class="cls-5" transform="translate(34.54 401.39)">SE<tspan class="cls-13" x="18.07" y="0">P</tspan><tspan x="27.73" y="0">TEMBER </tspan><tspan class="cls-9" x="92.62" y="0">20</tspan><tspan x="109.91" y="0">13 - JUNE </tspan><tspan class="cls-9" x="178.76" y="0">20</tspan><tspan class="cls-12" x="196.05" y="0">17</tspan></text>
  <text class="cls-5" transform="translate(26.31 555.99)">SE<tspan class="cls-13" x="18.07" y="0">P</tspan><tspan x="27.73" y="0">TEMBER </tspan><tspan class="cls-9" x="92.62" y="0">2</tspan><tspan x="100.62" y="0">005 - JUNE </tspan><tspan class="cls-9" x="182.99" y="0">20</tspan><tspan x="200.28" y="0">13</tspan></text>
  <text class="cls-5" transform="translate(279.85 474.31)">O<tspan class="cls-15" x="11.76" y="0">C</tspan><tspan class="cls-8" x="21.77" y="0">T</tspan><tspan x="29.85" y="0">OBER </tspan><tspan class="cls-9" x="75.53" y="0">20</tspan><tspan x="92.82" y="0">15</tspan></text>
  <text class="cls-5" transform="translate(279.85 633.91)">JUNE <tspan class="cls-9" x="42.77" y="0">20</tspan><tspan x="60.06" y="0">15 - JU</tspan><tspan class="cls-16" x="104.42" y="0">L</tspan><tspan x="111.72" y="0">Y </tspan><tspan class="cls-9" x="124.54" y="0">20</tspan><tspan class="cls-12" x="141.83" y="0">15</tspan></text>


 <line class="cls-4" id="line111" x1="265.88" y1="15.41" x2="383.64" y2="15.97"/>
  <line class="cls-4" id="line333" x1="266.64" y1="163.94" x2="462.84" y2="164.88"/>
  <line class="cls-4" id="line444" x1="89.14" y1="87.05" x2="252.31" y2="87.83"/>
    <line class="cls-4" id="line555" x1="15.7" y1="246.29" x2="252.31" y2="247.43"/>
<g id="lines">





<g id="line2">
  
</g>

<g id="line3">

</g>

<g id="line4">

</g>

<g id="line5">
  <line class="cls-4" x1="266.64" y1="323.54" x2="460.9" y2="324.48"/>
</g>

<g id="line6">
    <line class="cls-4" x1="265.63" y1="640.37" x2="428.81" y2="641.15"/>
</g>

<g id="line7">
      <line class="cls-4" x1="27.82" y1="403.58" x2="251.3" y2="404.65"/>
</g>

<g id="line8">
  <line class="cls-4" x1="265.63" y1="480.76" x2="428.81" y2="481.55"/>
</g>

<g id="line9">
  <line class="cls-4" x1="34.54" y1="563.21" x2="251.3" y2="564.25"/>
</g>




</g>




<g id="rhombs">


<g id="rhomb1">
<rect class="cls-3" x="273.41" y="20.01" width="9.13" height="9.13" transform="translate(46.26 194.59) rotate(-45)"/>
</g>

<g id="rhomb2">
<rect class="cls-3" x="272.41" y="91.04" width="11.13" height="11.13" transform="translate(-4.68 215.69) rotate(-45)"/>
</g>

<g id="rhomb3">
<rect class="cls-3" x="273.41" y="168.54" width="9.13" height="9.13" transform="translate(-58.78 238.09) rotate(-45)"/>
</g>

<g id="rhomb4">
<rect class="cls-3" x="272.41" y="250.64" width="11.13" height="11.13" transform="translate(-117.53 262.43) rotate(-45)"/>
</g>

<g id="rhomb5">
<rect class="cls-3" x="273.41" y="328.14" width="9.13" height="9.13" transform="translate(-171.63 284.84) rotate(-45)"/>
</g>

<g id="rhomb6">
<rect class="cls-3" x="271.39" y="407.86" width="11.13" height="11.13" transform="translate(-229 307.77) rotate(-45)"/>
</g>

<g id="rhomb7">
 <rect class="cls-3" x="272.4" y="485.36" width="9.13" height="9.13" transform="translate(-283.1 330.17) rotate(-45)"/>
</g>

 <g id="rhomb8">
   <rect class="cls-3" x="271.39" y="567.46" width="11.13" height="11.13" transform="translate(-341.86 354.51) rotate(-45)"/>
</g>

   <g id="rhomb9">
  <rect class="cls-3" x="272.4" y="644.97" width="9.13" height="9.13" transform="translate(-395.95 376.92) rotate(-45)"/>
</g>

</g>
  <g id="boxes">
  <g id="text1">
  <rect class="HTML_placeholder cls-17" x="270.49" y="27.06" width="251.25" height="52.5"/>
  </g>

  <g id="text2">
  <rect class="HTML_placeholder cls-17" data name="HTML placeholder" x="270.49" y="170.4" width="251.25" height="71.39"/>

  </g>

  <g id="text3">
  <rect class="HTML_placeholder cls-17" x="1.06" y="95.31" width="251.25" height="62.94"/>

  </g>



  <line class="cls-1" x1="260.19" y1="254.91" x2="260.19" y2="317.86"/>
  <line class="cls-1" x1="260.19" y1="330" x2="260.19" y2="397.0"/>
  


  <g id="text4">
  <rect class="HTML_placeholder cls-17" x="270.49" y="330" width="251.25" height="71.39"/>
  </g>

  <g id="text5">
  <rect class="HTML_placeholder cls-17" x="1.06" y="254.91" width="251.25" height="62.94"/>

  </g>

  <line class="cls-1" x1="259.18" y1="412.13" x2="259.18" y2="475.08"/>
  <line class="cls-1" x1="259.18" y1="487.22" x2="259.18" y2="556.2"/>
  


  <g id="text6">
  <rect class="HTML_placeholder cls-17" x="269.48" y="487.22" width="251.25" height="71.39"/>

  </g>

  <g id="text7">
  <rect class="HTML_placeholder cls-17" x="0.05" y="412.13" width="251.25" height="62.94"/>
  </g>


  <line class="cls-1" x1="259.18" y1="571.73" x2="259.18" y2="634.68"/>
  <line class="cls-1" x1="259.18" y1="646.82" x2="259.18" y2="715.8"/>



  <g id="text8">
  <rect class="HTML_placeholder cls-17" x="269.48" y="646.82" width="251.25" height="71.39"/>

  </g>

  <g id="text9">
  <rect class="HTML_placeholder cls-17" x="0.05" y="571.73" width="251.25" height="62.94"/>
  </g>
  </g>

</svg>
