<svg id="Layer_1" data-name="Layer 1" xmlns="http://www.w3.org/2000/svg" viewBox="0 0 525.59 572.2">
  <defs>
    <style>
      .cls-1 {
        fill: #58595b;
        stroke-width: 1.5px;
      }

      .cls-1, .cls-14, .cls-15, .cls-2, .cls-3, .cls-4 {
        stroke: #231f20;
        stroke-miterlimit: 10;
      }

      .cls-2 {
        fill: #64c6c2;
      }

      .cls-3 {
        fill: #5ac5c4;
      }

      .cls-4 {
        fill: none;
      }

      .cls-5 {
        font-size: 14px;
        fill: #231f20;
        font-family: Montserrat-Medium, Montserrat;
      }

      .cls-6 {
        letter-spacing: -0.01em;
      }

      .cls-7 {
        letter-spacing: 0em;
      }

      .cls-8 {
        letter-spacing: -0.01em;
      }

      .cls-9 {
        letter-spacing: 0em;
      }

      .cls-10 {
        letter-spacing: -0.02em;
      }

      .cls-11 {
        letter-spacing: 0em;
      }

      .cls-12 {
        letter-spacing: 0em;
      }

      .cls-13 {
        letter-spacing: -0.03em;
      }

      .cls-14, .cls-15 {
        fill: #fff;
      }

      .cls-14 {
        stroke-width: 0.1px;
      }

      .cls-15 {
        stroke-width: 0.15px;
      }
    </style>
  </defs>
  <title>ilvalife</title>
  <line class="cls-1" x1="260.55" y1="27.68" x2="260.55" y2="120.34"/>
  <line class="cls-1" x1="261.21" y1="141.87" x2="261.21" y2="234.52"/>
  <line class="cls-1" x1="261.21" y1="253.4" x2="261.21" y2="346.06"/>
  <line class="cls-1" x1="261.88" y1="367.78" x2="261.88" y2="460.43"/>
  <line class="cls-1" x1="261.88" y1="479.55" x2="261.88" y2="572.2"/>
  <rect class="cls-2" x="279.34" y="135.45" width="9.13" height="9.13" transform="translate(-39.2 118.68) rotate(-45)"/>
  <rect class="cls-3" x="278.33" y="248.3" width="11.13" height="11.13" transform="translate(-119.71 152.03) rotate(-45)"/>
  <rect class="cls-3" x="279.99" y="362.41" width="9.13" height="9.13" transform="translate(-199.5 185.62) rotate(-45)"/>
  <rect class="cls-3" x="280.66" y="587.16" width="9.13" height="9.13" transform="translate(-358.22 251.92) rotate(-45)"/>
  <rect class="cls-3" x="279.31" y="474.43" width="11.13" height="11.13" transform="translate(-279.32 218.95) rotate(-45)"/>
  <line class="cls-4" x1="266.25" y1="16.94" x2="429.42" y2="17.72"/>
  <line class="cls-4" x1="89.66" y1="129.98" x2="252.84" y2="130.76"/>
  <line class="cls-4" x1="267.66" y1="243.94" x2="430.84" y2="244.72"/>
  <line class="cls-4" x1="266.92" y1="468.65" x2="430.1" y2="469.43"/>
  <line class="cls-4" x1="90.48" y1="356.13" x2="253.65" y2="356.92"/>
  <text class="cls-5" transform="translate(306.75 11.9)"><tspan class="cls-6">A</tspan><tspan class="cls-7" x="10.04" y="0">UGU</tspan><tspan class="cls-8" x="42.99" y="0">S</tspan><tspan x="51.55" y="0">T </tspan><tspan class="cls-9" x="63.53" y="0">20</tspan><tspan x="80.82" y="0">18</tspan></text>
  <text class="cls-5" transform="translate(114.05 124.31)"><tspan class="cls-6">J</tspan><tspan x="6.97" y="0">AN</tspan><tspan class="cls-10" x="28.59" y="0">U</tspan><tspan x="39.45" y="0">A</tspan><tspan class="cls-8" x="49.7" y="0">R</tspan><tspan x="59.74" y="0">Y </tspan><tspan class="cls-11" x="72.56" y="0">20</tspan><tspan x="89.85" y="0">18</tspan></text>
  <text class="cls-5" transform="translate(274.29 234.52)">JUNE <tspan class="cls-9" x="42.77" y="0">20</tspan><tspan x="60.06" y="0">17 - </tspan><tspan class="cls-6" x="86.5" y="0">J</tspan><tspan x="93.48" y="0">AN</tspan><tspan class="cls-6" x="115.09" y="0">U</tspan><tspan class="cls-7" x="125.96" y="0">A</tspan><tspan class="cls-8" x="136.2" y="0">R</tspan><tspan class="cls-12" x="146.24" y="0">Y </tspan><tspan class="cls-9" x="159.07" y="0">20</tspan><tspan x="176.36" y="0">18</tspan></text>
  <text class="cls-5" transform="translate(114.05 346.06)">SE<tspan class="cls-13" x="18.07" y="0">P</tspan><tspan x="27.73" y="0">TEMBER </tspan><tspan class="cls-9" x="92.62" y="0">20</tspan><tspan x="109.91" y="0">17</tspan></text>
  <text class="cls-5" transform="translate(302.42 460.43)">JUNE <tspan class="cls-9" x="42.77" y="0">20</tspan><tspan x="60.06" y="0">17</tspan></text>
  <rect class="cls-14" x="270.86" y="28.6" width="251.25" height="95.72"/>
  <rect class="cls-15" x="0.08" y="141.87" width="251.25" height="95.72"/>
  <rect class="cls-14" x="274.29" y="251.87" width="251.25" height="95.72"/>
  <rect class="cls-14" x="0.08" y="372.93" width="251.25" height="95.72"/>
  <rect class="cls-14" x="270.86" y="473.69" width="251.25" height="95.72"/>
</svg>
